<svg xmlns="http://www.w3.org/2000/svg" xmlns:xlink="http://www.w3.org/1999/xlink" width="500" height="500" viewBox="0 0 500 500">
  <defs>
    <style>
      .cls-1 {
        clip-path: url(#clip-Backward);
      }

      .cls-2 {
        fill: none;
      }

      .cls-3 {
        fill: #2e4765;
      }

      .cls-4 {
        fill: #fff;
      }
    </style>
    <clipPath id="clip-Backward">
      <rect width="500" height="500"/>
    </clipPath>
  </defs>
  <g id="Backward" class="cls-1">
    <rect class="cls-4" width="500" height="500"/>
    <g id="payments_black_24dp" transform="translate(38 94)">
      <rect id="Rectangle_435" data-name="Rectangle 435" class="cls-2" width="424" height="312"/>
      <path id="Path_918" data-name="Path 918" class="cls-3" d="M346.273,194V42c0-20.9-17.264-38-38.364-38H39.364C18.264,4,1,21.1,1,42V194c0,20.9,17.264,38,38.364,38H307.909C329.009,232,346.273,214.9,346.273,194Zm-38.364,0H39.364V42H307.909ZM173.636,61c-31.842,0-57.545,25.46-57.545,57s25.7,57,57.545,57,57.545-25.46,57.545-57S205.478,61,173.636,61ZM423,61V270c0,20.9-17.264,38-38.364,38H58.545V270H384.636V61Z"/>
    </g>
  </g>
</svg>
