<svg xmlns="http://www.w3.org/2000/svg" xmlns:xlink="http://www.w3.org/1999/xlink" width="500" height="500" viewBox="0 0 500 500">
  <defs>
    <style>
      .cls-1 {
        clip-path: url(#clip-Beverage);
      }

      .cls-2 {
        fill: none;
        stroke: #2e4765;
        stroke-linecap: round;
        stroke-linejoin: round;
        stroke-width: 10px;
      }

      .cls-3 {
        fill: #fff;
      }
    </style>
    <clipPath id="clip-Beverage">
      <rect width="500" height="500"/>
    </clipPath>
  </defs>
  <g id="Beverage" class="cls-1">
    <rect class="cls-3" width="500" height="500"/>
    <g id="Group_838" data-name="Group 838" transform="translate(13.161 153.638) rotate(-30)">
      <path id="Path_715" data-name="Path 715" class="cls-2" d="M56.992,28.9,61.813,7.145C62.657,3.306,65.027,0,68.957,0H255.311c3.93,0,6.37,3.353,7.156,7.145l7.064,34.128a4.546,4.546,0,0,1,.07,1.052h37.2c7.873,0,13.122,6.555,14.312,14.313l3.029,19.815c1.18,7.735-6.486,14.3-14.312,14.3H14.424c-7.827,0-15.491-6.521-14.3-14.3l3.03-19.815c1.179-7.781,6.427-14.313,14.3-14.313,49.666,0,103.968-.347,153.947-.347" transform="translate(0 0)"/>
      <path id="Path_716" data-name="Path 716" class="cls-2" d="M84.77,0,77.253,93.347H0" transform="translate(214.423 101.636)"/>
      <path id="Path_717" data-name="Path 717" class="cls-2" d="M84.764,93.343H7.518L0,0" transform="translate(25.085 101.636)"/>
      <line id="Line_1" data-name="Line 1" class="cls-2" x1="7.731" y2="95.988" transform="translate(283.945 194.983)"/>
      <path id="Path_718" data-name="Path 718" class="cls-2" d="M172.214,0h71.4l-5.93,73.621c-.948,11.654-9.757,21.457-21.469,21.457H27.388c-11.7,0-20.51-9.688-21.457-21.457L0,0H71.4" transform="translate(40.332 290.97)"/>
      <line id="Line_2" data-name="Line 2" class="cls-2" x1="7.731" y1="95.989" transform="translate(32.603 194.979)"/>
      <path id="Path_719" data-name="Path 719" class="cls-2" d="M91.588,19.654C81.669,7.514,68.662,0,54.939,0S28.2,7.514,18.279,19.654C6.983,33.5,0,52.868,0,74.476S6.983,115.449,18.279,129.3c9.92,12.138,22.926,19.665,36.661,19.665s26.73-7.527,36.648-19.665c11.295-13.851,18.278-33.216,18.278-54.823S102.883,33.5,91.588,19.654Z" transform="translate(107.202 169.359)"/>
    </g>
  </g>
</svg>
