<svg xmlns="http://www.w3.org/2000/svg" xmlns:xlink="http://www.w3.org/1999/xlink" width="500" height="500" viewBox="0 0 500 500">
  <defs>
    <style>
      .cls-1 {
        clip-path: url(#clip-Breakfast);
      }

      .cls-2, .cls-3 {
        fill: none;
        stroke: #2e4765;
        stroke-linecap: round;
        stroke-width: 10px;
      }

      .cls-2 {
        stroke-miterlimit: 10;
      }

      .cls-3 {
        stroke-linejoin: round;
      }

      .cls-4 {
        fill: #fff;
      }
    </style>
    <clipPath id="clip-Breakfast">
      <rect width="500" height="500"/>
    </clipPath>
  </defs>
  <g id="Breakfast" class="cls-1">
    <rect class="cls-4" width="500" height="500"/>
    <path id="Path_720" data-name="Path 720" class="cls-2" d="M390.926,419.5c-73.2-10.714-126.411-43.112-126.411-81.417,0-10.706,4.159-20.954,11.748-30.395" transform="translate(-194.044 -120.806)"/>
    <path id="Path_721" data-name="Path 721" class="cls-2" d="M391.2,307.694c7.586,9.437,11.738,19.68,11.738,30.383,0,16.85-10.293,32.557-28.058,45.777" transform="translate(26.015 -120.796)"/>
    <path id="Path_722" data-name="Path 722" class="cls-2" d="M276.263,328.686c-7.589,9.44-11.748,19.689-11.748,30.4,0,47.044,80.248,85.178,179.238,85.178,0,0,32.56.288,64-4.952" transform="translate(-194.044 -78.941)"/>
    <path id="Path_723" data-name="Path 723" class="cls-2" d="M381.485,328.69c7.586,9.437,11.739,19.679,11.739,30.383,0,11.5-4.793,22.46-13.478,32.466" transform="translate(35.725 -78.931)"/>
    <path id="Path_724" data-name="Path 724" class="cls-2" d="M611.25,349.694c7.587,9.437,11.74,19.679,11.74,30.385,0,47.041-80.247,85.174-179.237,85.174S264.515,427.12,264.515,380.079c0-10.709,4.159-20.958,11.748-30.4" transform="translate(-194.044 -37.075)"/>
    <path id="Path_725" data-name="Path 725" class="cls-3" d="M574.733,471.055h0a116.117,116.117,0,0,0,7.83,43.208,20.388,20.388,0,1,1-38.015.39c4.692-12.471,7.974-25.422,7.977-38.742h0a17.657,17.657,0,0,0-17.659-17.66H516.28a9.947,9.947,0,0,0-9.95,9.95h0a29.561,29.561,0,0,0,5.677,16.74,20.389,20.389,0,1,1-33.216-.485,25.582,25.582,0,0,0,5.327-15.086h0A11.113,11.113,0,0,0,473,458.252h-9.787A19.577,19.577,0,0,0,443.64,477.83v11.932a23.744,23.744,0,0,0,4.979,14.613,20.387,20.387,0,1,1-32.516.461,25.567,25.567,0,0,0,5.329-15.086V471.315a36.012,36.012,0,0,0-30.693-35.658c-73.11-10.743-126.223-43.119-126.223-81.39,0-47.042,80.248-85.175,179.238-85.175S622.99,307.226,622.99,354.268c0,0-.228,16.864-11.74,30.394,0,0-36.493,35.84-36.493,88.51" transform="translate(-194.044 -197.764)"/>
    <path id="Path_726" data-name="Path 726" class="cls-3" d="M427.8,277.092c-94.794,0-155.287,36.266-155.287,61.226" transform="translate(-178.088 -181.816)"/>
  </g>
</svg>
