<svg xmlns="http://www.w3.org/2000/svg" xmlns:xlink="http://www.w3.org/1999/xlink" width="500" height="500" viewBox="0 0 500 500">
  <defs>
    <style>
      .cls-1 {
        clip-path: url(#clip-Dinner);
      }

      .cls-2, .cls-3 {
        fill: none;
        stroke: #2e4765;
        stroke-linecap: round;
        stroke-width: 10px;
      }

      .cls-2 {
        stroke-linejoin: round;
      }

      .cls-3 {
        stroke-miterlimit: 10;
      }

      .cls-4 {
        fill: #fff;
      }
    </style>
    <clipPath id="clip-Dinner">
      <rect width="500" height="500"/>
    </clipPath>
  </defs>
  <g id="Dinner" class="cls-1">
    <rect class="cls-4" width="500" height="500"/>
    <path id="Path_740" data-name="Path 740" class="cls-2" d="M854.584,1076.864a123.684,123.684,0,1,0,0,174.914A123.685,123.685,0,0,0,854.584,1076.864Z" transform="translate(-545.035 -914.221)"/>
    <path id="Path_741" data-name="Path 741" class="cls-2" d="M676.846,1169.68c-6.167.182-8.344,8.341-2.9,11.244a80.6,80.6,0,0,0,108.474-110.06c-2.993-5.4-11.114-3.116-11.215,3.063" transform="translate(-483.025 -852.677)"/>
    <path id="Path_742" data-name="Path 742" class="cls-2" d="M743.764,1050.963a89.991,89.991,0,0,0-89.994,89.991" transform="translate(-521.663 -890.851)"/>
    <path id="Path_743" data-name="Path 743" class="cls-2" d="M926.345,1076.171q-3.067-3.079-6.265-5.969a174.917,174.917,0,1,0-15.113,271.528" transform="translate(-580.567 -949.752)"/>
    <g id="Group_841" data-name="Group 841" transform="translate(369.073 109.531)">
      <path id="Path_744" data-name="Path 744" class="cls-3" d="M755.949,1168.813a34.762,34.762,0,0,0-11.308-25.467c-11.063-10.222-18.264-27.42-18.264-46.622,0-30.95,18.912-61.26,42.258-61.26,23.328,0,42.247,30.31,42.247,61.26,0,19.162-7.241,36.366-18.3,46.616a34.673,34.673,0,0,0-11.263,25.417V1317.9a12.684,12.684,0,0,1-12.68,12.682h0a12.679,12.679,0,0,1-12.687-12.682Z" transform="translate(-726.378 -1035.465)"/>
      <path id="Path_745" data-name="Path 745" class="cls-3" d="M739.327,1041.474c10.367,0,23.526,19.607,23.526,41.651" transform="translate(-697.07 -1021.863)"/>
    </g>
  </g>
</svg>
