<svg xmlns="http://www.w3.org/2000/svg" xmlns:xlink="http://www.w3.org/1999/xlink" width="500" height="500" viewBox="0 0 500 500">
  <defs>
    <style>
      .cls-1 {
        clip-path: url(#clip-Money);
      }

      .cls-2 {
        fill: #fff;
      }
    </style>
    <clipPath id="clip-Money">
      <rect width="500" height="500"/>
    </clipPath>
  </defs>
  <g id="Money" class="cls-1">
    <rect class="cls-2" width="500" height="500"/>
    <g id="Icon_ionic-ios-options" data-name="Icon ionic-ios-options" transform="translate(63 58)">
      <path id="Path_712" data-name="Path 712" class="cls-2" d="M216.168,47.536c5.25-13.387,17.189-22.786,31.076-22.786s25.826,9.4,31.076,22.786h63.762c7.452,0,13.548,6.836,13.548,15.191h0c0,8.355-6.1,15.191-13.548,15.191H278.321C273.071,91.3,261.132,100.7,247.245,100.7s-25.827-9.4-31.076-22.786H16.923c-7.452,0-13.548-6.836-13.548-15.191h0c0-8.355,6.1-15.191,13.548-15.191Z" transform="translate(-3.375 284.206)"/>
      <path id="Path_713" data-name="Path 713" class="cls-2" d="M80.685,36.451c5.25-12.492,17.189-21.263,31.076-21.263s25.826,8.771,31.076,21.263H342.083c7.452,0,13.548,6.379,13.548,14.175h0c0,7.8-6.1,14.175-13.548,14.175H142.838c-5.25,12.492-17.189,21.263-31.076,21.263S85.935,77.293,80.685,64.8H16.923c-7.452,0-13.548-6.379-13.548-14.175h0c0-7.8,6.1-14.175,13.548-14.175Z" transform="translate(-3.375 145.612)"/>
      <path id="Path_714" data-name="Path 714" class="cls-2" d="M216.168,27.97c5.25-13.127,17.189-22.345,31.076-22.345s25.826,9.217,31.076,22.345h63.762c7.452,0,13.548,6.7,13.548,14.9h0c0,8.193-6.1,14.9-13.548,14.9H278.321c-5.25,13.127-17.189,22.345-31.076,22.345s-25.827-9.217-31.076-22.345H16.923c-7.452,0-13.548-6.7-13.548-14.9h0c0-8.193,6.1-14.9,13.548-14.9Z" transform="translate(-3.375 -5.625)"/>
    </g>
  </g>
</svg>
